<?xml version="1.0" encoding="UTF-8"?>
<svg id="Layer_1" xmlns="http://www.w3.org/2000/svg" version="1.1" viewBox="0 0 314.63 79.11">
  <!-- Generator: Adobe Illustrator 29.1.0, SVG Export Plug-In . SVG Version: 2.1.0 Build 142)  -->
  <defs>
    <style>
      .st0 {
        fill: #8fc96d;
      }

      .st1 {
        fill: #231f20;
      }

      .st2, .st3 {
        fill: #fff;
      }

      .st4 {
        fill: none;
      }

      .st5 {
        fill: #fac5c6;
      }

      .st6 {
        fill: #010101;
      }

      .st7 {
        fill: #f6926a;
      }

      .st8 {
        fill: #205328;
      }

      .st3 {
        stroke: #231f20;
        stroke-linecap: round;
        stroke-linejoin: round;
        stroke-width: 5px;
      }
    </style>
  </defs>
  <path class="st4" d="M-334.79,7.52"/>
  <path class="st4" d="M-334.79,82.52"/>
  <path class="st3" d="M170.22,9.95h-3.64l-10.1,23.81c-1.98-7.67-9.33-13.49-17.24-12.33V5.09h-8.1l-16.55,4.74v8.88l3.66,2.68v3.71c-5.86-4.66-15.09-5-21.64-1.36-2.24-1.77-6.02-2.73-8.85-2.34v-.09h-7.64l-9.93,3.33c-6.95-5.11-18.16-4.18-24.59,1.29l-.7-11.12C29.11,2.54-.25,14.22,10.07,35.93h-3.79l1.2,20.25c10.31,6.29,25.76,8.26,34.85-1.3,4.91,6.25,14.46,8.22,21.79,5.3v.74h29.45v-1.24c4.19,2.41,9.97,2.25,14.19-.03,2.79,1.78,7.08,2.25,10.5,1.49h0s8.72,0,8.72,0l2.14-1.07c5.25,1.95,11.79,2,16.89-.52v1.36h46.85l-3.39,1.62v11.51h29.27v-11.77l-2.65-1.09c3.44-.6,6.78-2.21,9.41-4.55v4.07l-3.83,1.83v11.51h29.27v-11.77l-2.65-1.09c1.91-.34,3.73-.97,5.47-1.87v1.6h28.25v-1.15c9.7,4.56,22.75-.05,26.44-10.35,0-.55.04-9.6-.06-9.86,1.04-16.41-17.6-24.02-29.75-13.31V5.09h-8.09l-16.61,4.73v8.88l3.65,2.68v3.05c-3.55-2.81-8.11-3.68-12.42-2.81l-.04-.32h-7.45l-11.44,3.83c-3.6-3.29-8.61-4.48-13.28-3.52l-.04-.32h-7.45l-15.83,5.31v5.66l-9.4-22.33h-8.73"/>
  <g>
    <path class="st1" d="M25.72,54.99c-2.51,0-4.73-.26-6.65-.77-1.92-.51-3.78-1.23-5.57-2.14l-.57-9.65h1.03l4.05,7.02c1.03.84,2.14,1.48,3.34,1.94s2.43.69,3.68.69c2.06,0,3.73-.49,5.03-1.46,1.29-.97,1.94-2.41,1.94-4.31,0-1.29-.29-2.36-.88-3.2-.59-.84-1.57-1.63-2.94-2.37-1.37-.74-3.25-1.65-5.65-2.71-2.7-1.18-4.78-2.59-6.22-4.23-1.45-1.64-2.17-3.67-2.17-6.11,0-1.52.39-2.98,1.17-4.37.78-1.39,1.83-2.63,3.14-3.71s2.78-1.93,4.4-2.54c1.62-.61,3.28-.91,5-.91,1.94,0,3.81.23,5.6.69,1.79.46,3.44,1.1,4.97,1.94l.57,9.14h-.97l-4-6.45c-.99-.76-1.95-1.34-2.88-1.74-.93-.4-1.99-.6-3.17-.6-1.56,0-2.86.5-3.88,1.48-1.03.99-1.54,2.3-1.54,3.94s.56,2.85,1.68,3.85c1.12,1.01,3.07,2.14,5.85,3.4,3.46,1.6,6.01,3.24,7.65,4.91,1.64,1.68,2.46,3.88,2.46,6.62,0,2.44-.71,4.53-2.11,6.28-1.41,1.75-3.22,3.08-5.42,4-2.21.91-4.51,1.37-6.91,1.37Z"/>
    <path class="st1" d="M56.78,54.99c-2.44,0-4.59-.51-6.45-1.54-1.87-1.03-3.31-2.47-4.34-4.34-1.03-1.86-1.54-4.03-1.54-6.51,0-2.89.6-5.45,1.8-7.68s2.87-3.97,5.02-5.22c2.15-1.26,4.65-1.88,7.51-1.88,1.79,0,3.41.25,4.85.74,1.45.5,2.53,1.18,3.25,2.06.61.72.91,1.29.91,1.71,0,.46-.25.91-.74,1.37l-2.68,2.28h-.4l-2-2.8c-.65-.88-1.29-1.57-1.94-2.08-.65-.51-1.5-.77-2.57-.77-1.75,0-3.08.87-3.97,2.6-.89,1.73-1.34,4.05-1.34,6.94,0,1.64.29,3.14.86,4.51.57,1.37,1.47,2.46,2.71,3.25,1.24.8,2.85,1.2,4.83,1.2,1.07,0,2.21-.13,3.43-.4,1.22-.27,2.47-.72,3.77-1.37h.17v.91c-.95,2.02-2.39,3.69-4.31,5.02-1.92,1.33-4.2,2-6.82,2Z"/>
    <path class="st1" d="M70.37,54.42v-.91l3.77-1.83v-17.02l-3.6-2.68v-.69l10.39-3.48h.69l.51,5.14h.29c.91-1.45,1.73-2.54,2.46-3.28.72-.74,1.41-1.24,2.06-1.48.65-.25,1.35-.37,2.11-.37.3,0,.66.05,1.06.14.4.1.75.2,1.06.31,1.14.34,1.71.88,1.71,1.6,0,.34-.08.67-.23.97l-1.37,3.71h-.4l-1.48-.51c-.99-.34-2-.51-3.03-.51-1.6,0-2.99.74-4.17,2.23v15.93l4.63,1.83v.91h-16.45Z"/>
    <path class="st1" d="M100.18,54.93c-1.87,0-3.46-.56-4.8-1.68-1.33-1.12-1.96-2.75-1.88-4.88,0-1.37.27-2.54.8-3.51.53-.97,1.46-1.82,2.8-2.54,1.33-.72,3.2-1.39,5.6-2l5.37-1.31v-3.54c0-1.45-.44-2.61-1.31-3.48-.88-.88-2-1.31-3.37-1.31-1.22,0-2.09.27-2.63.8-.53.53-.8,1.33-.8,2.4v2.63l-.23.23h-3.77c-.57,0-.97-.13-1.2-.4-.23-.27-.34-.72-.34-1.37,0-.84.33-1.66,1-2.46.67-.8,1.55-1.54,2.66-2.23,1.37-.88,2.66-1.5,3.85-1.88,1.2-.38,2.5-.57,3.91-.57,1.87,0,3.58.25,5.14.74,1.56.5,2.81,1.28,3.74,2.37.93,1.08,1.4,2.48,1.4,4.2v15.08c.61.61,1.52.91,2.74.91h1.66l.17.17v.8c-.42.72-1.13,1.39-2.14,2s-2.31.91-3.91.91-2.9-.33-3.91-1c-1.01-.67-1.78-1.63-2.31-2.88h-.34c-.95,1.07-2.09,1.97-3.43,2.71-1.33.74-2.82,1.11-4.45,1.11ZM101.04,46.77c0,1.22.33,2.12,1,2.71.67.59,1.59.88,2.77.88,1.03,0,2.11-.23,3.25-.68v-8.39c-1.9.42-3.36.88-4.37,1.37-1.01.5-1.7,1.07-2.08,1.71-.38.65-.57,1.45-.57,2.4Z"/>
    <path class="st1" d="M124.51,54.65V18.1l-3.66-2.68v-.69l10.96-3.14h.69v19.64h.34c1.37-1.22,2.7-2.09,4-2.63,1.29-.53,2.7-.8,4.23-.8,1.67,0,3.25.51,4.71,1.51,1.46,1.01,2.64,2.45,3.51,4.31.88,1.87,1.31,4.09,1.31,6.68,0,3.05-.62,5.66-1.86,7.85-1.24,2.19-2.86,3.87-4.88,5.05-2.02,1.18-4.25,1.77-6.68,1.77-1.64,0-3.14-.17-4.51-.51-1.37-.34-2.65-.89-3.83-1.66l-3.65,1.83h-.68ZM136.32,32.49c-.68,0-1.32.1-1.91.29-.59.19-1.23.48-1.91.86v16.5c1.1,1.26,2.53,1.88,4.28,1.88.95,0,1.88-.29,2.77-.88.89-.59,1.63-1.63,2.2-3.11.57-1.48.86-3.58.86-6.28,0-3.16-.65-5.49-1.94-7-1.29-1.5-2.74-2.26-4.34-2.26Z"/>
    <path class="st1" d="M152.26,54.42v-.91l3.48-1.94,14.9-35.12h5.03l14.73,35,3.88,2.06v.91h-18.04v-.91l4.97-2.06-3.88-9.48h-13.53l-3.88,9.48,4.74,2.06v.91h-12.39ZM165.1,38.83h10.91l-5.42-13.3-5.48,13.3Z"/>
    <path class="st1" d="M195.71,67.55v-.91l3.83-1.83v-30.15l-3.65-2.68v-.69l10.39-3.48h.69l.46,3.48h.34c1.41-1.22,2.77-2.1,4.08-2.66,1.31-.55,2.73-.83,4.25-.83,1.67,0,3.25.51,4.71,1.51,1.47,1.01,2.64,2.45,3.51,4.31.88,1.87,1.31,4.09,1.31,6.68,0,3.05-.61,5.66-1.83,7.85-1.22,2.19-2.84,3.87-4.85,5.05-2.02,1.18-4.21,1.77-6.57,1.77-.88,0-1.72-.04-2.54-.11-.82-.08-1.59-.23-2.31-.46v10.39l4.45,1.83v.91h-16.27ZM211.36,32.49c-.68,0-1.32.1-1.91.29-.59.19-1.23.48-1.91.86v16.5c1.1,1.26,2.61,1.88,4.51,1.88.91,0,1.8-.29,2.66-.86s1.56-1.58,2.11-3.03c.55-1.45.83-3.5.83-6.17,0-3.27-.65-5.67-1.94-7.19-1.29-1.52-2.74-2.28-4.34-2.28Z"/>
    <path class="st1" d="M227.92,67.55v-.91l3.83-1.83v-30.15l-3.65-2.68v-.69l10.39-3.48h.69l.46,3.48h.34c1.41-1.22,2.77-2.1,4.08-2.66,1.31-.55,2.73-.83,4.25-.83,1.67,0,3.25.51,4.71,1.51,1.47,1.01,2.64,2.45,3.51,4.31.88,1.87,1.31,4.09,1.31,6.68,0,3.05-.61,5.66-1.83,7.85-1.22,2.19-2.84,3.87-4.85,5.05-2.02,1.18-4.21,1.77-6.57,1.77-.88,0-1.72-.04-2.54-.11-.82-.08-1.59-.23-2.31-.46v10.39l4.45,1.83v.91h-16.27ZM243.56,32.49c-.68,0-1.32.1-1.91.29-.59.19-1.23.48-1.91.86v16.5c1.1,1.26,2.61,1.88,4.51,1.88.91,0,1.8-.29,2.66-.86s1.56-1.58,2.11-3.03c.55-1.45.83-3.5.83-6.17,0-3.27-.65-5.67-1.94-7.19-1.29-1.52-2.74-2.28-4.34-2.28Z"/>
    <path class="st1" d="M260.01,54.42v-.91l3.83-1.83V18.1l-3.65-2.68v-.69l11.02-3.14h.69v40.09l3.37,1.83v.91h-15.25Z"/>
    <path class="st1" d="M290.38,54.99c-3.92,0-7.01-1.13-9.28-3.4-2.27-2.26-3.4-5.26-3.4-8.99,0-2.89.63-5.45,1.88-7.68,1.26-2.23,2.95-3.97,5.08-5.22,2.13-1.26,4.51-1.88,7.14-1.88,3.08,0,5.48,1.03,7.19,3.08,1.71,2.06,2.59,4.97,2.63,8.74l-.23.29h-15.99v.29c0,1.6.3,3.05.91,4.37.61,1.31,1.57,2.35,2.88,3.11,1.31.76,3.02,1.14,5.11,1.14,1.1,0,2.25-.13,3.45-.4,1.2-.27,2.45-.72,3.74-1.37h.17v.91c-.95,2.02-2.41,3.69-4.37,5.02-1.96,1.33-4.27,2-6.94,2ZM290.5,30.38c-1.33,0-2.43.61-3.28,1.83-.86,1.22-1.4,2.93-1.63,5.14h9.65c-.27-2.63-.81-4.44-1.63-5.45-.82-1.01-1.86-1.51-3.11-1.51Z"/>
  </g>
  <g id="SVGRepo_iconCarrier">
    <path class="st2" d="M106.22,42.27c8.12-2.38,8.37,11.78.33,11.7-9.19,1.43-10.25-14.56-.33-11.7Z"/>
    <path class="st5" d="M112.13,45.46c1.57,6.63-4.77,11.33-10.92,7.02-1.28-4.43.48-8.93,6.03-7.49,1.92-.19,3.82-.42,4.88.47h0Z"/>
    <path class="st7" d="M108.7,42.09c7.01,1.33,3.76,15.95-6.54,11.11,6.46,1.3,8.41-6.12,6.54-11.11h0Z"/>
    <path class="st5" d="M103.82,43.73c-.07,1.38,4.75,1.39,4.68,0,.07-1.38-4.75-1.38-4.68,0Z"/>
    <path class="st6" d="M104.66,54.32c-7.71-.24-7.87-15,.75-12.4,1.19.03,2.41-.36,3.39-.18,7.02,1.46,4.25,14.52-4.13,12.58ZM105.77,53.6c5.33,1.07,8.27-6.26,4.62-10.56-2.04-1.2-5.26-.2-7.56-.6-6.01,1.27-3.11,12.37,2.93,11.16Z"/>
    <path class="st6" d="M105.75,44.57c-.68.31-3.17-1.42-1.4-1.35.96.77,1.85.77,2.81,0,.17-.14.41-.11.55.05.34.89-1.42,1.29-1.95,1.3Z"/>
    <path class="st6" d="M105.78,44.15c-1.5-.85,2.74-6.38,2.17-3.72-.92.32-1.15,2.61-2.17,3.72h0Z"/>
    <path class="st0" d="M103.95,42.66c1.01,0,1.92-.45,2.73-1.36-1.59-1.82-3.88-1.82-5.46,0,.81.91,1.73,1.36,2.73,1.36Z"/>
    <path class="st6" d="M104.02,43.01c-1.19.03-2.34-.66-3.21-1.72,1.74-2.27,4.67-2.27,6.41,0-.87,1.06-2.02,1.74-3.21,1.72ZM101.78,41.29c1.22,1.33,3.26,1.33,4.48,0-1.22-1.33-3.26-1.33-4.48,0Z"/>
    <path class="st8" d="M103.67,41.01c.23.11,2.83-.28,2.75.27.09.54-2.53.16-2.75.27-.34,0-.35-.54,0-.53Z"/>
  </g>
</svg>