<?xml version="1.0" encoding="UTF-8"?>
<svg id="Layer_1" xmlns="http://www.w3.org/2000/svg" version="1.1" viewBox="0 0 322.67 88.74">
  <!-- Generator: Adobe Illustrator 29.1.0, SVG Export Plug-In . SVG Version: 2.1.0 Build 142)  -->
  <defs>
    <style>
      .st0 {
        fill: #fff;
        stroke: #231f20;
        stroke-linecap: round;
        stroke-linejoin: round;
        stroke-width: 3px;
      }

      .st1 {
        fill: #231f20;
        font-family: ViaodaLibre-Regular, 'Viaoda Libre';
        font-size: 72px;
        letter-spacing: -.02em;
      }
    </style>
  </defs>
  <path class="st0" d="M310.57,38.56c-2.3-3.29-6.89-7.2-15.69-7.2-4.53,0-8.46,1.37-11.69,4.07-.47.39-.92.81-1.35,1.25l.04-27.85h-14.38v2.02h-6.98v13.84l3.82.72v11c-.48-.47-.98-.93-1.51-1.35-3.07-2.45-6.77-3.69-11-3.69-1.65,0-3.21.22-4.69.65l-.06-23.18h-11.16l-1.41,2.02h-8.11v14.08l3.82.55v13.67c-1.12-1.71-2.56-3.24-4.31-4.56-2.9-2.18-6.55-3.29-10.86-3.29-3.36,0-6.48.86-9.28,2.57-2.23,1.35-4.06,3.09-5.52,5.13-1.06-1.49-2.3-2.8-3.72-3.94-3.07-2.45-6.77-3.69-11-3.69-1.65,0-3.21.22-4.69.65l-.06-23.18h-11.16l-1.41,2.02h-8.11v14.08l3.82.55v10.93c-.48-.47-.98-.93-1.51-1.35-3.07-2.45-6.77-3.69-11-3.69-1.65,0-3.21.22-4.69.65l-.06-23.18h-11.16l-1.41,2.02h-8.11v14.08l3.82.55v13.67c-1.12-1.71-2.56-3.24-4.31-4.56-2.9-2.18-6.55-3.29-10.86-3.29-3.36,0-6.48.86-9.28,2.57-.91.55-1.73,1.18-2.51,1.85-2.12-2.8-5.27-4.35-8.94-4.35-1.4,0-3.25.3-5.16,1.44h-5.47l-1.33,1.94h-4.19c-.41-.26-.85-.52-1.32-.77-3.31-1.74-6.9-2.62-10.69-2.62-4.47,0-8.42,1.34-11.72,3.98-2.95,2.36-5.19,5.4-6.67,9.05-.67-.66-1.37-1.29-2.12-1.85l.48-3.36h4.28V11.85h-13.51l-.12.82c-2.08-.64-4.21-.96-6.34-.96-3.83,0-7.36.88-10.51,2.6-3.21,1.77-5.79,4.27-7.66,7.44-1.86,3.16-2.81,6.72-2.81,10.57s.96,7.45,2.87,10.28c.7,1.04,1.47,2,2.31,2.88h-5.04v32.58h10.84c.12.07.24.14.36.21,3.11,1.75,6.89,2.6,11.58,2.6,3.9,0,7.58-1.1,10.94-3.27,2.6-1.68,4.79-3.81,6.56-6.32,1.32,1.95,2.95,3.66,4.89,5.09,3.41,2.51,7.65,3.79,12.6,3.79,2.48,0,4.85-.53,7.04-1.53v.81h24.88v-4.72c.41.48.83.9,1.23,1.27,3,2.73,6.86,4.17,11.14,4.17,3.13,0,5.98-.76,8.38-2.23,1.71,1.44,3.93,2.23,6.45,2.23,1.42,0,2.79-.25,4.09-.72h13.49l.28-.88c2.25,1.05,4.79,1.6,7.56,1.6,5.01,0,9.29-1.71,12.43-4.88v4.16h13.86l.28-.87c2.25,1.05,4.79,1.6,7.56,1.6,5.52,0,10.14-2.06,13.35-5.87.52.66,1.06,1.23,1.58,1.7,3,2.73,6.86,4.17,11.14,4.17,3.13,0,5.98-.76,8.38-2.23,1.71,1.44,3.93,2.23,6.45,2.23,1.42,0,2.79-.25,4.09-.72h13.49l.28-.87c2.25,1.05,4.79,1.6,7.56,1.6,3.21,0,6.12-.71,8.62-2.04v1.32h24.88v-1.48c2.47,1.3,5.62,2.21,9.63,2.21h.12c3.7-.07,7.07-1.02,10.03-2.82,2.91-1.77,5.19-4.09,6.77-6.89,1.66-2.93,2.39-5.99,2.16-9.08l.48-4.27.09-.83c.11-1.34.17-2.44.17-3.35,0-5.47-1.44-10.29-4.27-14.35ZM65.54,47.79"/>
  <text class="st1" transform="translate(11.94 72.33)"><tspan x="0" y="0">Scrabbable</tspan></text>
</svg>